<svg version="1.1" id="Layer_1" xmlns="http://www.w3.org/2000/svg" x="0" y="0" viewBox="0 0 256 256" style="enable-background:new 0 0 256 256" xml:space="preserve"><style>.st1{fill:#291b4a}.st5{fill:#ebe7f2}.st6{fill:#f9b087}.st7{fill:#ff8639}.st8{fill:#65c1d6}.st9{fill:#149cb2}</style><circle cx="128" cy="128" r="119.4" style="fill:#382b73"/><path class="st1" d="M116.577 132c0 6.298 5.125 11.423 11.423 11.423s11.423-5.125 11.423-11.423-5.125-11.423-11.423-11.423-11.423 5.125-11.423 11.423zm17.846 0c0 3.542-2.881 6.423-6.423 6.423s-6.423-2.881-6.423-6.423 2.881-6.423 6.423-6.423 6.423 2.881 6.423 6.423z"/><path class="st1" d="M62.235 196.544h43.041l20.957 20.958a2.498 2.498 0 0 0 3.536 0l20.957-20.958h43.041a2.5 2.5 0 0 0 2.5-2.5v-42.746c10.396-1.242 18.487-10.099 18.487-20.824s-8.091-19.582-18.487-20.824V69.956a2.5 2.5 0 0 0-2.5-2.5h-43.041l-20.957-20.958c-.938-.938-2.598-.938-3.535 0l-20.957 20.958H62.235a2.5 2.5 0 0 0-2.5 2.5v39.695c-10.396 1.242-18.487 10.099-18.487 20.824s8.091 19.582 18.487 20.824v42.746a2.5 2.5 0 0 0 2.5 2.499zm2.5-5v-40.246c9.061-1.082 16.363-7.948 18.09-16.798h15.019v.411a5.068 5.068 0 0 0 3.8 4.906l4.614 1.189-2.424 4.106a5.067 5.067 0 0 0 .785 6.153l4.116 4.116a5.063 5.063 0 0 0 6.156.782l4.104-2.422 1.19 4.618a5.067 5.067 0 0 0 4.905 3.797h.411v9.163l-20.225 20.225H64.735zm47.518-68.23-4.1-7.045 4.195-4.128 6.966 4.112a2.497 2.497 0 0 0 3.692-1.529l2.083-7.88 5.886.047 2.018 7.833a2.5 2.5 0 0 0 3.692 1.529l7.045-4.1 4.128 4.196-4.111 6.966a2.499 2.499 0 0 0 1.529 3.691l7.833 2.019.624-2.421-.576 2.485-.047 5.886-7.833 2.018a2.5 2.5 0 0 0-1.529 3.691l4.1 7.045-4.196 4.128-6.966-4.111a2.496 2.496 0 0 0-3.691 1.529l-2.083 7.88-5.886-.047-2.018-7.833a2.5 2.5 0 0 0-3.692-1.529l-7.045 4.1-4.128-4.195 4.112-6.966a2.501 2.501 0 0 0-1.529-3.692l-7.88-2.083.048-5.886 7.833-2.019a2.5 2.5 0 0 0 1.686-1.464c.298-.725.24-1.55-.16-2.227zM128 212.198l-18.154-18.154L128 175.89l18.154 18.154L128 212.198zm63.265-20.654h-40.541L130.5 171.319v-9.163h.411a5.068 5.068 0 0 0 4.906-3.8l1.189-4.614 4.105 2.423a5.067 5.067 0 0 0 6.154-.784l4.116-4.116a5.066 5.066 0 0 0 .782-6.156l-2.422-4.104 4.618-1.19a5.067 5.067 0 0 0 3.797-4.905v-.41h15.019c1.727 8.849 9.029 15.715 18.09 16.798v40.246zm18.487-61.07c0 8.815-7.172 15.987-15.987 15.987-8.815 0-15.987-7.172-15.987-15.987s7.172-15.987 15.987-15.987c8.816 0 15.987 7.172 15.987 15.987zm-18.487-58.018v37.195c-10.077 1.204-17.962 9.569-18.437 19.849h-14.671v-.411a5.068 5.068 0 0 0-3.798-4.906h-.002l-4.615-1.189 2.423-4.106a5.066 5.066 0 0 0-.784-6.154l-4.116-4.116a5.07 5.07 0 0 0-6.156-.782l-4.103 2.422-1.19-4.617a5.068 5.068 0 0 0-4.905-3.797h-.411v-9.163l20.225-20.225h40.54zM128 51.802l18.154 18.154L128 88.11l-18.154-18.154L128 51.802zM64.735 72.456h40.541L125.5 92.681v9.163h-.411a5.07 5.07 0 0 0-4.906 3.8l-1.189 4.614-4.106-2.424a5.069 5.069 0 0 0-6.153.784l-4.116 4.116a5.068 5.068 0 0 0-.783 6.156l2.422 4.104-4.617 1.189a5.068 5.068 0 0 0-3.798 4.906v.411H83.172c-.475-10.281-8.36-18.646-18.437-19.849V72.456zm-18.487 58.018c0-8.703 6.994-15.791 15.655-15.97.11.015.218.033.332.033s.222-.019.332-.033c8.661.179 15.655 7.267 15.655 15.97 0 8.815-7.172 15.987-15.987 15.987-8.816 0-15.987-7.172-15.987-15.987z"/><g><path class="st8" d="M62.235 63.456a2.5 2.5 0 0 0-2.5 2.5v41.082a2.5 2.5 0 1 0 5 0V68.456h41.576a2.5 2.5 0 1 0 0-5H62.235zM193.765 110.487a2.5 2.5 0 0 0 2.5-2.5V65.956a2.5 2.5 0 0 0-2.5-2.5h-44.076a2.5 2.5 0 1 0 0 5h41.576v39.531a2.5 2.5 0 0 0 2.5 2.5zM62.235 142.461a2.5 2.5 0 0 0-2.5 2.5v45.083a2.5 2.5 0 0 0 2.5 2.5h44.076a2.5 2.5 0 1 0 0-5H64.735v-42.583a2.5 2.5 0 0 0-2.5-2.5zM191.265 144.961v42.583h-41.576a2.5 2.5 0 1 0 0 5h44.076a2.5 2.5 0 0 0 2.5-2.5v-45.083a2.5 2.5 0 1 0-5 0zM155.656 125.5a2.5 2.5 0 1 0 0 5h19.622a2.5 2.5 0 1 0 0-5h-19.622zM80.654 125.5a2.5 2.5 0 1 0 0 5h19.69a2.5 2.5 0 1 0 0-5h-19.69zM125.5 87.646v12.698a2.5 2.5 0 1 0 5 0V87.646a2.5 2.5 0 1 0-5 0zM125.5 155.656v12.698a2.5 2.5 0 1 0 5 0v-12.698a2.5 2.5 0 1 0-5 0z"/><path class="st9" d="M62.235 63.456a2.5 2.5 0 0 0-2.5 2.5v41.082a2.5 2.5 0 1 0 5 0V68.456h41.576a2.5 2.5 0 1 0 0-5H62.235zm45.076 2.5c0 .551-.449 1-1 1H64.735a1.5 1.5 0 0 0-1.5 1.5v38.582c0 .551-.449 1-1 1s-1-.449-1-1V65.956c0-.551.449-1 1-1h44.076c.551 0 1 .449 1 1zM193.765 110.487a2.5 2.5 0 0 0 2.5-2.5V65.956a2.5 2.5 0 0 0-2.5-2.5h-44.076a2.5 2.5 0 1 0 0 5h41.576v39.531a2.5 2.5 0 0 0 2.5 2.5zm-44.076-43.531c-.551 0-1-.449-1-1s.449-1 1-1h44.076c.551 0 1 .449 1 1v42.031c0 .551-.449 1-1 1s-1-.449-1-1V68.456a1.5 1.5 0 0 0-1.5-1.5h-41.576zM62.235 142.461a2.5 2.5 0 0 0-2.5 2.5v45.083a2.5 2.5 0 0 0 2.5 2.5h44.076a2.5 2.5 0 1 0 0-5H64.735v-42.583a2.5 2.5 0 0 0-2.5-2.5zm44.076 46.583c.551 0 1 .449 1 1s-.449 1-1 1H62.235c-.551 0-1-.449-1-1v-45.083c0-.551.449-1 1-1s1 .449 1 1v42.583a1.5 1.5 0 0 0 1.5 1.5h41.576zM191.265 144.961v42.583h-41.576a2.5 2.5 0 1 0 0 5h44.076a2.5 2.5 0 0 0 2.5-2.5v-45.083a2.5 2.5 0 1 0-5 0zm3.5 0v45.083c0 .551-.449 1-1 1h-44.076c-.551 0-1-.449-1-1s.449-1 1-1h41.576a1.5 1.5 0 0 0 1.5-1.5v-42.583c0-.551.449-1 1-1s1 .449 1 1zM155.656 125.5a2.5 2.5 0 1 0 0 5h19.622a2.5 2.5 0 1 0 0-5h-19.622zm20.622 2.5c0 .551-.449 1-1 1h-19.622c-.551 0-1-.449-1-1s.449-1 1-1h19.622c.552 0 1 .449 1 1zM80.654 125.5a2.5 2.5 0 1 0 0 5h19.69a2.5 2.5 0 1 0 0-5h-19.69zm20.69 2.5c0 .551-.449 1-1 1h-19.69c-.551 0-1-.449-1-1s.449-1 1-1h19.69c.551 0 1 .449 1 1zM125.5 87.646v12.698a2.5 2.5 0 1 0 5 0V87.646a2.5 2.5 0 1 0-5 0zm3.5 0v12.698c0 .551-.449 1-1 1s-1-.449-1-1V87.646a1.001 1.001 0 0 1 2 0zM125.5 155.656v12.698a2.5 2.5 0 1 0 5 0v-12.698a2.5 2.5 0 1 0-5 0zm3.5 0v12.698c0 .551-.449 1-1 1s-1-.449-1-1v-12.698c0-.551.449-1 1-1s1 .449 1 1z"/><g><path class="st6" d="M158.156 130.911v-5.821a5.068 5.068 0 0 0-3.798-4.906h-.002l-4.615-1.189 2.423-4.106a5.066 5.066 0 0 0-.784-6.154l-4.116-4.116a5.07 5.07 0 0 0-6.156-.782l-4.103 2.422-1.19-4.617a5.068 5.068 0 0 0-4.905-3.797h-5.821a5.07 5.07 0 0 0-4.906 3.8l-1.189 4.614-4.106-2.424a5.069 5.069 0 0 0-6.153.784l-4.116 4.116a5.068 5.068 0 0 0-.783 6.156l2.422 4.104-4.617 1.189a5.068 5.068 0 0 0-3.798 4.906v5.821a5.068 5.068 0 0 0 3.8 4.906l4.614 1.189-2.424 4.106a5.067 5.067 0 0 0 .785 6.153l4.116 4.116a5.063 5.063 0 0 0 6.156.782l4.104-2.422 1.19 4.618a5.067 5.067 0 0 0 4.905 3.797h5.821a5.068 5.068 0 0 0 4.906-3.8l1.189-4.614 4.105 2.423a5.066 5.066 0 0 0 6.154-.784l4.116-4.116a5.066 5.066 0 0 0 .782-6.156l-2.422-4.104 4.618-1.19a5.064 5.064 0 0 0 3.798-4.904zm-5-5.822-.047 5.886-7.833 2.018a2.5 2.5 0 0 0-1.529 3.691l4.1 7.045-4.196 4.128-6.966-4.111a2.496 2.496 0 0 0-3.691 1.529l-2.083 7.88-5.886-.047-2.018-7.833a2.5 2.5 0 0 0-3.692-1.529l-7.045 4.1-4.128-4.195 4.112-6.966a2.501 2.501 0 0 0-1.529-3.692l-7.88-2.083.048-5.886 7.833-2.019a2.5 2.5 0 0 0 1.529-3.692l-4.1-7.045 4.195-4.128 6.966 4.112a2.5 2.5 0 0 0 3.692-1.529l2.083-7.88 5.886.047 2.018 7.833a2.5 2.5 0 0 0 3.692 1.529l7.045-4.1 4.128 4.196-4.111 6.966a2.499 2.499 0 0 0 1.529 3.691l7.833 2.019.624-2.421-.579 2.486z"/><path d="M116.577 128c0 6.298 5.125 11.423 11.423 11.423s11.423-5.125 11.423-11.423-5.125-11.423-11.423-11.423-11.423 5.125-11.423 11.423zm17.846 0c0 3.542-2.881 6.423-6.423 6.423s-6.423-2.881-6.423-6.423 2.881-6.423 6.423-6.423 6.423 2.881 6.423 6.423z" style="fill:#d3d3d3"/><path class="st5" d="M116.577 128c0 6.298 5.125 11.423 11.423 11.423s11.423-5.125 11.423-11.423-5.125-11.423-11.423-11.423-11.423 5.125-11.423 11.423zm21.346 0c0 5.471-4.451 9.923-9.923 9.923s-9.923-4.451-9.923-9.923c0-5.471 4.451-9.923 9.923-9.923s9.923 4.452 9.923 9.923z"/><path class="st5" d="M120.077 128c0 4.369 3.554 7.923 7.923 7.923s7.923-3.554 7.923-7.923-3.554-7.923-7.923-7.923-7.923 3.554-7.923 7.923zm14.346 0c0 3.542-2.881 6.423-6.423 6.423s-6.423-2.881-6.423-6.423 2.881-6.423 6.423-6.423 6.423 2.881 6.423 6.423z"/></g><g><path class="st6" d="m126.232 42.499-21.689 21.69a2.498 2.498 0 0 0 0 3.535l21.689 21.689c.488.488 1.128.732 1.768.732s1.28-.244 1.768-.732l21.689-21.689a2.498 2.498 0 0 0 0-3.535l-21.689-21.69c-.938-.939-2.598-.939-3.536 0zM128 84.11l-18.154-18.154L128 47.802l18.154 18.154L128 84.11zM126.232 166.587l-21.689 21.689a2.498 2.498 0 0 0 0 3.535l21.689 21.69a2.498 2.498 0 0 0 3.536 0l21.689-21.69a2.498 2.498 0 0 0 0-3.535l-21.689-21.689a2.5 2.5 0 0 0-3.536 0zM128 208.198l-18.154-18.154L128 171.89l18.154 18.154L128 208.198z"/><g><path class="st6" d="M41.248 126.474c0 11.572 9.415 20.987 20.987 20.987s20.987-9.415 20.987-20.987-9.415-20.987-20.987-20.987-20.987 9.415-20.987 20.987zm36.974 0c0 8.815-7.172 15.987-15.987 15.987-8.815 0-15.987-7.172-15.987-15.987s7.172-15.987 15.987-15.987c8.815 0 15.987 7.172 15.987 15.987zM172.778 126.474c0 11.572 9.415 20.987 20.987 20.987s20.987-9.415 20.987-20.987-9.415-20.987-20.987-20.987-20.987 9.415-20.987 20.987zm36.974 0c0 8.815-7.172 15.987-15.987 15.987-8.815 0-15.987-7.172-15.987-15.987s7.172-15.987 15.987-15.987c8.816 0 15.987 7.172 15.987 15.987z"/></g></g><g><path class="st7" d="m145.65 134.446 7.833-2.018a1.502 1.502 0 0 0 1.126-1.441l.047-5.886a1.5 1.5 0 0 0-1.117-1.462l-7.889-2.085a1.001 1.001 0 0 1-.612-1.476l4.111-6.966a1.5 1.5 0 0 0-.223-1.814l-4.128-4.196a1.498 1.498 0 0 0-1.824-.244l-7.054 4.105a.994.994 0 0 1-.89.062 1.006 1.006 0 0 1-.586-.674l-2.018-7.833a1.502 1.502 0 0 0-1.44-1.126l-5.886-.047h-.012a1.5 1.5 0 0 0-1.45 1.117l-2.085 7.89a1.006 1.006 0 0 1-.969.75.997.997 0 0 1-.508-.139l-6.966-4.112a1.495 1.495 0 0 0-1.814.223l-4.195 4.128a1.5 1.5 0 0 0-.244 1.824l4.104 7.053a1.003 1.003 0 0 1-.612 1.477l-7.833 2.019c-.658.17-1.12.761-1.126 1.44l-.048 5.886a1.5 1.5 0 0 0 1.117 1.462l7.89 2.085c.302.078.554.297.674.586.12.288.096.621-.063.891l-4.112 6.966a1.5 1.5 0 0 0 .223 1.815l4.128 4.195a1.502 1.502 0 0 0 1.824.244l7.055-4.105a1 1 0 0 1 1.475.612l2.018 7.833c.17.658.761 1.12 1.44 1.126l5.886.047h.012a1.5 1.5 0 0 0 1.45-1.117l2.085-7.89a1.005 1.005 0 0 1 .968-.75c.178 0 .353.048.508.139l6.966 4.111a1.495 1.495 0 0 0 1.814-.223l4.196-4.128a1.5 1.5 0 0 0 .245-1.824l-4.105-7.054a1.004 1.004 0 0 1-.063-.89c.122-.289.374-.508.677-.586zm-1.903 2.239 4.1 7.045-4.196 4.128-6.966-4.111a2.49 2.49 0 0 0-2.227-.157 2.497 2.497 0 0 0-1.464 1.686l-2.083 7.88-5.886-.047-2.018-7.833a2.5 2.5 0 0 0-3.692-1.529l-7.045 4.1-4.128-4.195 4.112-6.966a2.501 2.501 0 0 0-1.529-3.692l-7.88-2.083.048-5.886 7.833-2.019a2.5 2.5 0 0 0 1.529-3.692l-4.1-7.045 4.195-4.128 6.966 4.112a2.5 2.5 0 0 0 3.692-1.529l2.083-7.88 5.886.047 2.018 7.833a2.5 2.5 0 0 0 3.691 1.53l7.045-4.1 4.128 4.196-4.111 6.966a2.499 2.499 0 0 0 1.529 3.691l7.881 2.083-.047 5.886-7.833 2.018a2.5 2.5 0 0 0-1.531 3.691z"/><path class="st7" d="M158.156 130.911v-5.821a5.068 5.068 0 0 0-3.798-4.906h-.002l-4.615-1.189 2.423-4.106a5.066 5.066 0 0 0-.784-6.154l-4.116-4.116a5.074 5.074 0 0 0-6.157-.782l-4.103 2.422-1.19-4.617a5.068 5.068 0 0 0-4.905-3.797h-5.821a5.07 5.07 0 0 0-4.906 3.8l-1.189 4.614-4.106-2.424a5.067 5.067 0 0 0-6.153.784l-4.116 4.116a5.068 5.068 0 0 0-.783 6.156l2.422 4.104-4.617 1.189a5.068 5.068 0 0 0-3.798 4.906v5.821a5.068 5.068 0 0 0 3.8 4.906l4.614 1.189-2.424 4.106a5.067 5.067 0 0 0 .785 6.153l4.116 4.116a5.059 5.059 0 0 0 6.155.782l4.104-2.422 1.19 4.618a5.067 5.067 0 0 0 4.905 3.797h5.821a5.068 5.068 0 0 0 4.906-3.8l1.189-4.614 4.105 2.423a5.063 5.063 0 0 0 6.154-.784l4.116-4.116a5.066 5.066 0 0 0 .782-6.156l-2.422-4.104 4.618-1.19a5.064 5.064 0 0 0 3.8-4.904zm-8.789 4.642a1.5 1.5 0 0 0-.917 2.215l2.421 4.102a3.567 3.567 0 0 1-.55 4.334l-4.116 4.116a3.566 3.566 0 0 1-4.331.552l-4.106-2.423a1.502 1.502 0 0 0-2.216.918l-1.188 4.612a3.57 3.57 0 0 1-3.454 2.676h-5.821a3.566 3.566 0 0 1-3.453-2.671l-1.19-4.618a1.5 1.5 0 0 0-2.215-.917l-4.103 2.422a3.564 3.564 0 0 1-4.333-.551l-4.116-4.116a3.567 3.567 0 0 1-.554-4.33l2.424-4.106a1.5 1.5 0 0 0-.918-2.215l-4.612-1.188a3.57 3.57 0 0 1-2.676-3.454v-5.821a3.566 3.566 0 0 1 2.672-3.453l4.617-1.189a1.499 1.499 0 0 0 .918-2.215l-2.421-4.102a3.57 3.57 0 0 1 .551-4.335l4.116-4.116a3.545 3.545 0 0 1 2.524-1.045c.635 0 1.26.17 1.806.492l4.106 2.424a1.502 1.502 0 0 0 2.216-.917l1.188-4.612a3.57 3.57 0 0 1 3.454-2.677h5.821a3.568 3.568 0 0 1 3.453 2.671l1.19 4.617a1.5 1.5 0 0 0 2.216.917l4.101-2.421a3.583 3.583 0 0 1 1.812-.494c.954 0 1.85.371 2.523 1.044l4.116 4.116a3.565 3.565 0 0 1 .552 4.331l-2.423 4.106a1.5 1.5 0 0 0 .918 2.215l4.615 1.189.005.001a3.567 3.567 0 0 1 2.669 3.452v5.821a3.566 3.566 0 0 1-2.671 3.453l-4.62 1.19zM128 41.795c-.649 0-1.299.235-1.768.704l-21.689 21.69a2.498 2.498 0 0 0 0 3.535l21.689 21.689c.488.488 1.128.732 1.768.732s1.28-.244 1.768-.732l21.689-21.689a2.498 2.498 0 0 0 0-3.535l-21.689-21.69c-.469-.47-1.119-.704-1.768-.704zm22.689 24.161a.993.993 0 0 1-.293.707l-21.69 21.69c-.188.189-.439.293-.706.293s-.518-.104-.707-.293l-21.69-21.69c-.189-.189-.293-.44-.293-.707s.104-.518.293-.707l21.69-21.69c.168-.168.425-.264.706-.264s.539.096.707.265l21.69 21.69a.99.99 0 0 1 .293.706z"/><path class="st7" d="M128 46.302c-.398 0-.779.158-1.061.439l-18.154 18.154a1.5 1.5 0 0 0 0 2.121l18.154 18.154c.293.293.677.439 1.061.439s.768-.146 1.061-.439l18.154-18.154a1.5 1.5 0 0 0 0-2.121l-18.154-18.154a1.503 1.503 0 0 0-1.061-.439zm0 37.808-18.154-18.154L128 47.802l18.154 18.154L128 84.11zM128 165.854c-.64 0-1.28.244-1.768.732l-21.689 21.689a2.498 2.498 0 0 0 0 3.535l21.689 21.69a2.498 2.498 0 0 0 3.536 0l21.689-21.69a2.498 2.498 0 0 0 0-3.535l-21.689-21.689a2.497 2.497 0 0 0-1.768-.732zm22.689 24.19a.993.993 0 0 1-.293.707l-21.69 21.69c-.188.189-.439.293-.706.293s-.518-.104-.707-.293l-21.69-21.69c-.189-.189-.293-.44-.293-.707s.104-.518.293-.707l21.69-21.69a.99.99 0 0 1 .706-.293c.267 0 .518.104.707.293l21.69 21.69c.189.189.293.44.293.707z"/><path class="st7" d="M128 170.39c-.384 0-.768.146-1.061.439l-18.154 18.154a1.5 1.5 0 0 0 0 2.121l18.154 18.154a1.5 1.5 0 0 0 2.122 0l18.154-18.154a1.5 1.5 0 0 0 0-2.121l-18.154-18.154a1.5 1.5 0 0 0-1.061-.439zm0 37.808-18.154-18.154L128 171.89l18.154 18.154L128 208.198z"/><g><path class="st7" d="M44.748 126.474c0 9.642 7.845 17.487 17.487 17.487s17.487-7.845 17.487-17.487-7.845-17.487-17.487-17.487c-9.643 0-17.487 7.845-17.487 17.487zm33.474 0c0 8.815-7.172 15.987-15.987 15.987-8.815 0-15.987-7.172-15.987-15.987s7.172-15.987 15.987-15.987c8.815 0 15.987 7.172 15.987 15.987z"/><path class="st7" d="M41.248 126.474c0 11.572 9.415 20.987 20.987 20.987s20.987-9.415 20.987-20.987-9.415-20.987-20.987-20.987-20.987 9.415-20.987 20.987zm40.474 0c0 10.745-8.742 19.487-19.487 19.487-10.745 0-19.487-8.742-19.487-19.487s8.742-19.487 19.487-19.487c10.745 0 19.487 8.742 19.487 19.487z"/></g><g><path class="st7" d="M176.278 126.474c0 9.642 7.845 17.487 17.487 17.487 9.643 0 17.487-7.845 17.487-17.487s-7.845-17.487-17.487-17.487-17.487 7.845-17.487 17.487zm33.474 0c0 8.815-7.172 15.987-15.987 15.987-8.815 0-15.987-7.172-15.987-15.987s7.172-15.987 15.987-15.987c8.816 0 15.987 7.172 15.987 15.987z"/><path class="st7" d="M172.778 126.474c0 11.572 9.415 20.987 20.987 20.987s20.987-9.415 20.987-20.987-9.415-20.987-20.987-20.987-20.987 9.415-20.987 20.987zm40.474 0c0 10.745-8.742 19.487-19.487 19.487-10.745 0-19.487-8.742-19.487-19.487s8.742-19.487 19.487-19.487c10.745 0 19.487 8.742 19.487 19.487z"/></g></g></g></svg>